<svg width="18.000000" height="18.000000" viewBox="0 0 18 18" fill="none" xmlns="http://www.w3.org/2000/svg" xmlns:xlink="http://www.w3.org/1999/xlink">
	<desc>
			Created with Pixso.
	</desc>
	<defs>
		<clipPath id="clip55822_7958">
			<rect id="edit-2" width="18.000000" height="18.000000" fill="white" fill-opacity="0"/>
		</clipPath>
	</defs>
	<rect id="edit-2" width="18.000000" height="18.000000" fill="#FFFFFF" fill-opacity="0"/>
	<g clip-path="url(#clip55822_7958)">
		<path id="Vector" d="M13.43 1.79C13.69 1.68 13.97 1.62 14.25 1.62C14.52 1.62 14.8 1.68 15.06 1.79C15.31 1.89 15.55 2.05 15.75 2.24C15.94 2.44 16.1 2.68 16.2 2.93C16.31 3.19 16.37 3.47 16.37 3.74C16.37 4.02 16.31 4.3 16.2 4.56C16.1 4.81 15.94 5.05 15.75 5.24L5.62 15.37L1.5 16.5L2.62 12.37L12.75 2.24C12.94 2.05 13.18 1.89 13.43 1.79Z" stroke="#F6B83D" stroke-opacity="1.000000" stroke-width="1.500000" stroke-linejoin="round"/>
	</g>
</svg>
